HIERARCHY
ROOT Hips
{
	OFFSET 0.000000 0.000000 0.000000 
	CHANNELS 6 Xposition Yposition Zposition Yrotation Zrotation Xrotation 
	JOINT Lumbar
	{
		OFFSET 0.000000 0.000000 0.000000 
		CHANNELS 3 Zrotation Xrotation Yrotation
		JOINT Neck
		{
			OFFSET 0.000000 0.445665 0.000000 
			CHANNELS 3 Zrotation Xrotation Yrotation
			End Site
			{
				OFFSET 0.000000 0.227535 0.000000 
			}
		}
		JOINT RightShoulder
		{
			OFFSET 0.019635 0.377685 0.194865 
			CHANNELS 3 Zrotation Xrotation Yrotation
			JOINT RightElbow
			{
				OFFSET 0.000000 -0.243375 0.000000 
				CHANNELS 2 Zrotation Yrotation
				JOINT RightWrist
				{
					OFFSET 0.000000 -0.264825 0.000000 
					CHANNELS 2 Zrotation Xrotation
					End Site
					{
						OFFSET 0.006600 -0.176220 0.000990 
					}
				}
			}
		}
		JOINT LeftShoulder
		{
			OFFSET 0.019635 0.377685 -0.194865 
			CHANNELS 3 Zrotation Xrotation Yrotation
			JOINT LeftElbow
			{
				OFFSET 0.000000 -0.243375 0.000000 
				CHANNELS 2 Zrotation Yrotation
				JOINT LeftWrist
				{
					OFFSET 0.000000 -0.264825 0.000000 
					CHANNELS 2 Zrotation Xrotation
					End Site
					{
						OFFSET 0.006600 -0.176220 -0.000990 
					}
				}
			}
		}
	}
	JOINT RightHip
	{
		OFFSET 0.052140 -0.069960 0.075570 
		CHANNELS 3 Zrotation Xrotation Yrotation
		JOINT RightKnee
		{
			OFFSET 0.000000 -0.402270 0.000000 
			CHANNELS 1 Zrotation
			JOINT RightAnkle
			{
				OFFSET 0.000000 -0.404085 0.000000 
				CHANNELS 3 Zrotation Xrotation Yrotation
				End Site
				{
					OFFSET 0.204105 -0.089430 0.008415 
				}
			}
		}
	}
	JOINT LeftHip
	{
		OFFSET 0.052140 -0.069960 -0.075570 
		CHANNELS 3 Zrotation Xrotation Yrotation
		JOINT LeftKnee
		{
			OFFSET 0.000000 -0.402270 0.000000 
			CHANNELS 1 Zrotation
			JOINT LeftAnkle
			{
				OFFSET 0.000000 -0.404085 0.000000 
				CHANNELS 3 Zrotation Xrotation Yrotation
				End Site
				{
					OFFSET 0.204105 -0.089430 -0.008415 
				}
			}
		}
	}
}
MOTION
Frames: 16
Frame Time: 0.02
-0.00034 -1e-05 0 176.34419 -46.91323 1.03067 57.16581 0.60499 0.64013 -5.44951 -1.70431 -1.05342 138.4814 -74.27975 -76.57773 11.81807 71.5128 -1.15199 -11.09125 151.22522 72.10467 83.08067 10.78279 -88.8005 -1.78711 16.16266 50.26362 -0.57462 -9.3955 -18.7353 -7.51373 -3.75845 -4.11393 54.60986 2.7203 11.73354 -24.00019 -7.80298 3.16993 3.86856
-0.00026 -1e-05 7e-05 176.39877 -46.89412 1.04418 57.15946 0.59498 0.6147 -5.46523 -1.71404 -1.05429 138.73026 -74.24343 -76.40068 11.81433 71.56235 -1.14206 -11.08259 151.2352 72.11582 83.09111 10.78231 -88.7895 -1.7683 16.14352 50.24156 -0.61644 -9.59807 -18.73925 -7.50685 -3.75167 -4.10889 54.59011 2.75016 11.93076 -24.00169 -7.79692 3.15749 3.85647
-0.00018 -1e-05 0.00013 176.4532 -46.87506 1.05765 57.15312 0.58499 0.58935 -5.48092 -1.72374 -1.05515 138.9785 -74.20716 -76.22407 11.81056 71.61175 -1.13216 -11.07393 151.24507 72.12693 83.10164 10.78179 -88.77852 -1.74954 16.1244 50.21956 -0.65814 -9.80007 -18.74319 -7.49997 -3.74491 -4.10386 54.57044 2.7799 12.12721 -24.00319 -7.79086 3.14509 3.84443
-0.00011 -1e-05 0.00019 176.50762 -46.856 1.07113 57.14679 0.57501 0.564 -5.4966 -1.73344 -1.05602 139.22664 -74.17095 -76.04753 11.80683 71.66115 -1.12226 -11.0653 151.25501 72.13804 83.11204 10.78132 -88.76755 -1.73079 16.10532 50.19757 -0.69983 -10.00201 -18.74712 -7.49311 -3.73815 -4.09883 54.55076 2.80966 12.3238 -24.00469 -7.78481 3.13269 3.83238
-3e-05 -0 0.00026 176.56215 -46.83691 1.08463 57.14045 0.56501 0.53858 -5.5123 -1.74315 -1.05688 139.47528 -74.13468 -75.87065 11.80311 71.71069 -1.11231 -11.05666 151.26509 72.14917 83.12236 10.78088 -88.75657 -1.71198 16.08623 50.17551 -0.74164 -10.20452 -18.75107 -7.48623 -3.73138 -4.09379 54.53099 2.83957 12.52124 -24.00619 -7.77875 3.12027 3.8203
4e-05 -0 0.00032 176.61639 -46.81789 1.09804 57.13412 0.55505 0.51338 -5.52798 -1.75283 -1.05774 139.72265 -74.09842 -75.69464 11.79925 71.75981 -1.10253 -11.04796 151.2745 72.16022 83.13338 10.78019 -88.7456 -1.69333 16.06701 50.15365 -0.78313 -10.40545 -18.75499 -7.47937 -3.72462 -4.08878 54.51151 2.86893 12.71559 -24.00768 -7.77273 3.10791 3.80834
0.00012 -0 0.00038 176.67117 -46.79875 1.11164 57.12778 0.54502 0.48774 -5.5437 -1.76258 -1.05861 139.97246 -74.06222 -75.51693 11.79572 71.8097 -1.09242 -11.03941 151.2853 72.17145 83.14279 10.78007 -88.7346 -1.67437 16.04812 50.13141 -0.8252 -10.60925 -18.75895 -7.47249 -3.71785 -4.08372 54.49149 2.89937 12.91592 -24.00919 -7.76662 3.09544 3.79614
0.0002 -0 0.00045 176.72542 -46.77971 1.12505 57.12143 0.53506 0.46254 -5.55936 -1.77225 -1.05947 140.21971 -74.02592 -75.34105 11.7918 71.8589 -1.08262 -11.03069 151.29468 72.18248 83.15404 10.7793 -88.72366 -1.65573 16.02885 50.10951 -0.86676 -10.81057 -18.76288 -7.46562 -3.71108 -4.0787 54.47195 2.92882 13.11078 -24.01068 -7.7606 3.08308 3.78416
0.00028 0 0.00051 176.77917 -46.76084 1.13826 57.11515 0.52514 0.43776 -5.57501 -1.78185 -1.06033 140.4652 -73.98962 -75.1663 11.78776 71.90722 -1.07316 -11.0219 151.30287 72.19341 83.16616 10.77821 -88.71269 -1.63736 16.00942 50.08807 -0.90762 -11.00828 -18.76676 -7.4588 -3.70435 -4.07374 54.45306 2.957 13.29882 -24.01216 -7.75466 3.07081 3.77246
0.00034 0 0.00057 176.83624 -46.74114 1.15274 57.10869 0.51486 0.41021 -5.59091 -1.79195 -1.06123 140.72493 -73.95369 -74.98171 11.78545 71.96049 -1.06163 -11.01392 151.31957 72.20536 83.16911 10.78041 -88.70155 -1.61704 15.9918 50.06413 -0.95227 -11.22504 -18.7709 -7.45177 -3.6975 -4.06846 54.43063 2.99232 13.5257 -24.01374 -7.74817 3.05786 3.75917
0.00044 0 0.00064 176.88604 -46.72307 1.16446 57.10249 0.5054 0.38874 -5.60617 -1.80094 -1.06203 140.95198 -73.91675 -74.82003 11.77884 72.0034 -1.05455 -11.00396 151.31726 72.21488 83.19405 10.77472 -88.69099 -1.6011 15.96981 50.04537 -0.98906 -11.40268 -18.77451 -7.44516 -3.69086 -4.06384 54.41555 3.01268 13.6709 -24.0151 -7.74291 3.04646 3.74925
0.00061 1e-05 0.0007 176.91793 -46.71046 1.1691 57.09798 0.49786 0.38237 -5.62041 -1.80744 -1.0625 141.10889 -73.87887 -74.70546 11.76474 72.01821 -1.05905 -10.98984 151.26876 72.21948 83.25524 10.75436 -88.6808 -1.59624 15.93862 50.04149 -1.00289 -11.46314 -18.77637 -7.44 -3.68506 -4.06137 54.4217 2.99084 13.58764 -24.01579 -7.74048 3.0386 3.74837
0.00081 1e-05 0.00076 176.94211 -46.69927 1.17085 57.0935 0.4912 0.38247 -5.63379 -1.81272 -1.06286 141.22852 -73.83957 -74.61775 11.74497 72.02349 -1.06816 -10.97289 151.19866 72.22111 83.34076 10.72426 -88.67185 -1.5967 15.90149 50.04264 -1.00904 -11.48601 -18.77773 -7.43522 -3.67941 -4.05953 54.43502 2.95421 13.42312 -24.01627 -7.73938 3.03246 3.75091
0.00101 1e-05 0.00082 176.96859 -46.68683 1.17361 57.08841 0.48436 0.38057 -5.64719 -1.81821 -1.06328 141.35352 -73.79982 -74.52687 11.72566 72.03175 -1.07551 -10.95716 151.13629 72.22318 83.43369 10.69474 -88.66258 -1.5944 15.86657 50.04104 -1.01965 -11.53267 -18.77949 -7.43011 -3.67353 -4.05719 54.44441 2.9251 13.29867 -24.01688 -7.738 3.02604 3.75202
0.00118 2e-05 0.00088 177.00035 -46.67707 1.17774 57.08602 0.47662 0.37445 -5.66247 -1.82521 -1.06368 141.53079 -73.76496 -74.39409 11.71751 72.04186 -1.08128 -10.94415 151.08842 72.22989 83.45782 10.68359 -88.65051 -1.59051 15.83795 50.04149 -1.02632 -11.55148 -18.78052 -7.42571 -3.66839 -4.05573 54.45675 2.89252 13.16102 -24.01734 -7.73526 3.01751 3.75262
0.0014 1e-05 0.00094 177.01902 -46.66188 1.17821 57.0778 0.47092 0.37898 -5.67324 -1.82869 -1.06409 141.58596 -73.71923 -74.35972 11.68196 72.05066 -1.09165 -10.92175 150.99805 72.22523 83.61958 10.62916 -88.64681 -1.59503 15.78948 50.03876 -1.03918 -11.61873 -18.78295 -7.41987 -3.66166 -4.05259 54.4645 2.86372 13.03135 -24.01808 -7.73568 3.01377 3.7551
